<svg xmlns="http://www.w3.org/2000/svg" width="1400" height="900" viewBox="0 0 1400 900">
  <defs>
    <linearGradient id="sky" x1="0" x2="1" y1="0" y2="1"><stop stop-color="#DDF8FF"/><stop offset=".58" stop-color="#EFF7F5"/><stop offset="1" stop-color="#B3C2C8"/></linearGradient>
    <linearGradient id="water" x1="0" x2="1"><stop stop-color="#0C5A64"/><stop offset=".55" stop-color="#36A7A8"/><stop offset="1" stop-color="#082F35"/></linearGradient>
    <linearGradient id="tower" x1="0" x2="1"><stop stop-color="#EDF2F7"/><stop offset=".5" stop-color="#A9B7C2"/><stop offset="1" stop-color="#F9FAFB"/></linearGradient>
  </defs>
  <rect width="1400" height="900" fill="url(#sky)"/>
  <rect y="560" width="1400" height="340" fill="url(#water)"/>
  <path d="M0 610 C200 560 310 650 500 600 C740 535 900 650 1120 590 C1270 550 1340 570 1400 555 L1400 900 L0 900 Z" fill="#0E464A" opacity=".45"/>
  <g opacity=".95">
    <rect x="80" y="240" width="98" height="370" fill="url(#tower)"/>
    <rect x="203" y="160" width="132" height="460" fill="url(#tower)"/>
    <rect x="360" y="225" width="84" height="388" fill="url(#tower)"/>
    <rect x="472" y="100" width="150" height="520" fill="url(#tower)"/>
    <rect x="650" y="190" width="108" height="425" fill="url(#tower)"/>
    <rect x="790" y="120" width="170" height="500" fill="url(#tower)"/>
    <rect x="990" y="250" width="102" height="360" fill="url(#tower)"/>
    <rect x="1120" y="175" width="138" height="438" fill="url(#tower)"/>
  </g>
  <g opacity=".32" fill="#FFFFFF">
    <path d="M96 280h58v310H96zM226 200h82v386h-82zM496 145h96v440h-96zM824 168h100v420H824zM1148 220h80v365h-80z"/>
  </g>
  <g stroke="#FFFFFF" stroke-width="3" opacity=".55">
    <path d="M70 686 C235 650 370 698 520 672 S875 642 1030 684 1280 650 1400 672"/>
    <path d="M0 746 C180 720 310 768 500 734 S870 712 1060 752 1270 716 1400 735"/>
  </g>
</svg>
