<svg xmlns="http://www.w3.org/2000/svg" width="1600" height="620" viewBox="0 0 1600 620">
  <defs><linearGradient id="s" x1="0" x2="1"><stop stop-color="#DDF9FF"/><stop offset=".52" stop-color="#F8FAFC"/><stop offset="1" stop-color="#B3CBD0"/></linearGradient><linearGradient id="w" x1="0" x2="1"><stop stop-color="#07565F"/><stop offset=".5" stop-color="#43B5B0"/><stop offset="1" stop-color="#08353B"/></linearGradient></defs>
  <rect width="1600" height="620" fill="url(#s)"/><rect y="370" width="1600" height="250" fill="url(#w)"/><g fill="#EAF0F1"><rect x="80" y="145" width="90" height="245"/><rect x="215" y="85" width="125" height="310"/><rect x="390" y="125" width="88" height="270"/><rect x="540" y="55" width="136" height="342"/><rect x="735" y="112" width="94" height="283"/><rect x="890" y="70" width="150" height="325"/><rect x="1100" y="142" width="98" height="252"/><rect x="1260" y="95" width="130" height="300"/></g><g stroke="#fff" stroke-width="3" opacity=".55"><path d="M0 444 C250 405 380 470 570 432 S920 405 1130 450 1400 410 1600 440"/><path d="M0 520 C260 480 430 548 640 505 S1010 485 1220 530 1440 490 1600 512"/></g></svg>
